<svg id="Icons" height="512" viewBox="0 0 74 74" width="512" xmlns="http://www.w3.org/2000/svg"><path d="m55.528 54.381h-37.066a5.268 5.268 0 0 1 -5.256-5.267v-37.6a5.267 5.267 0 0 1 5.256-5.266h10.267l2.142-3.748a1 1 0 0 1 .868-.5h10.522a1 1 0 0 1 .868.5l2.142 3.744h10.257a5.272 5.272 0 0 1 5.266 5.266v37.6a5.272 5.272 0 0 1 -5.266 5.271zm-37.066-46.134a3.265 3.265 0 0 0 -3.256 3.266v37.6a3.265 3.265 0 0 0 3.256 3.267h37.066a3.27 3.27 0 0 0 3.266-3.267v-37.6a3.27 3.27 0 0 0 -3.266-3.266h-10.838a1 1 0 0 1 -.868-.5l-2.141-3.747h-9.362l-2.141 3.744a1 1 0 0 1 -.868.5z"/><path d="m56.19 41.7h-38.38a4.613 4.613 0 0 1 -4.61-4.6v-21.886a1 1 0 0 1 1-1h45.6a1 1 0 0 1 1 1v21.886a4.613 4.613 0 0 1 -4.61 4.6zm-40.99-25.486v20.886a2.61 2.61 0 0 0 2.61 2.6h38.38a2.61 2.61 0 0 0 2.61-2.6v-20.886z"/><path d="m23.747 50.312a3.471 3.471 0 1 1 3.471-3.471 3.475 3.475 0 0 1 -3.471 3.471zm0-4.942a1.471 1.471 0 1 0 1.471 1.471 1.473 1.473 0 0 0 -1.471-1.471z"/><path d="m50.253 50.312a3.471 3.471 0 1 1 3.471-3.471 3.475 3.475 0 0 1 -3.471 3.471zm0-4.942a1.471 1.471 0 1 0 1.471 1.471 1.473 1.473 0 0 0 -1.471-1.471z"/><path d="m37 41.7a1 1 0 0 1 -1-1v-25.486a1 1 0 1 1 2 0v25.486a1 1 0 0 1 -1 1z"/><circle cx="32.064" cy="10.493" r="1.261"/><path d="m32.064 12.254a1.762 1.762 0 1 1 1.761-1.761 1.764 1.764 0 0 1 -1.761 1.761zm0-2.523a.762.762 0 1 0 .761.762.763.763 0 0 0 -.761-.762z"/><circle cx="37" cy="10.493" r="1.261"/><path d="m37 12.254a1.762 1.762 0 1 1 1.761-1.761 1.763 1.763 0 0 1 -1.761 1.761zm0-2.523a.762.762 0 1 0 .761.762.762.762 0 0 0 -.761-.762z"/><circle cx="41.936" cy="10.493" r="1.261"/><path d="m41.936 12.254a1.762 1.762 0 1 1 1.764-1.761 1.763 1.763 0 0 1 -1.764 1.761zm0-2.523a.762.762 0 1 0 .762.762.762.762 0 0 0 -.762-.762z"/><path d="m21.389 72h-4.8a1 1 0 0 1 -.96-1.28l5.135-17.62a1 1 0 0 1 .96-.72h4.888a1 1 0 0 1 .959 1.284l-5.223 17.62a1 1 0 0 1 -.959.716zm-3.469-2h2.723l4.629-15.619h-2.8z"/><path d="m57.413 72h-4.8a1 1 0 0 1 -.959-.716l-5.225-17.619a1 1 0 0 1 .959-1.284h4.888a1 1 0 0 1 .96.72l5.137 17.619a1 1 0 0 1 -.96 1.28zm-4.056-2h2.723l-4.554-15.619h-2.8z"/><path d="m50.621 65.285h-27.242a1 1 0 0 1 -.959-1.285l1.139-3.835a1 1 0 0 1 .958-.716h24.966a1 1 0 0 1 .958.716l1.139 3.835a1 1 0 0 1 -.959 1.285zm-25.9-2h24.56l-.545-1.836h-23.472z"/></svg>